Coordinates
version=1
nRows=26
nColumns=24
inDegrees=yes

Units are S.I. units (second, meters, Newtons, ...)
Angles are in degrees.

endheader
time	pelvis_tilt	pelvis_list	pelvis_rotation	pelvis_tx	pelvis_ty	pelvis_tz	hip_flexion_r	hip_adduction_r	hip_rotation_r	knee_angle_r	ankle_angle_r	subtalar_angle_r	mtp_angle_r	hip_flexion_l	hip_adduction_l	hip_rotation_l	knee_angle_l	ankle_angle_l	subtalar_angle_l	mtp_angle_l	lumbar_extension	lumbar_bending	lumbar_rotation
      3.08000000	     -1.95493389	     -2.64281043	     -9.32917271	     -0.93737451	      0.90956644	      0.21345430	    -10.23564284	      8.05634524	     11.91695495	    -22.82424861	     24.84776652	     -4.85161113	      0.00000000	     30.76580931	     -4.11063690	     -7.83320859	    -12.53366871	     10.14902914	    -10.73940373	      0.00000000	    -11.84945434	      0.72017051	      0.50005522
      3.08500000	     -1.97368486	     -2.39568335	     -9.29477771	     -0.92946756	      0.90850098	      0.21308391	    -10.23455086	      7.67156217	     11.40533804	    -23.65303873	     24.73052657	     -4.14931813	      0.00000000	     30.95003045	     -3.73707488	     -7.52384519	    -13.44384008	      9.62470794	    -11.32244882	      0.00000000	    -11.70385650	      0.41090480	      0.35611069
      3.09000000	     -2.00451125	     -2.09336586	     -9.24388355	     -0.92152701	      0.90751889	      0.21268370	    -10.17184694	      7.22649245	     10.83387009	    -24.54216985	     24.54346924	     -3.43040593	      0.00000000	     31.15265446	     -3.30071891	     -7.18498539	    -14.38593580	      8.99074206	    -11.91997425	      0.00000000	    -11.53164100	      0.04681768	      0.18006381
      3.09500000	     -2.04443242	     -1.75001847	     -9.16888974	     -0.91360477	      0.90662181	      0.21225873	    -10.03629109	      6.73822606	     10.20084450	    -25.52086852	     24.27308473	     -2.67080206	      0.00000000	     31.37779507	     -2.81137770	     -6.81128257	    -15.35649006	      8.27142144	    -12.54714462	      0.00000000	    -11.34495532	     -0.37114555	     -0.02068985
      3.10000000	     -2.09265871	     -1.35720422	     -9.06929585	     -0.90567788	      0.90584118	      0.21181414	     -9.83739507	      6.20160179	      9.54063417	    -26.57013429	     23.88837779	     -1.93269029	      0.00000000	     31.62724065	     -2.26732965	     -6.46202542	    -16.35861845	      7.50076701	    -13.13951904	      0.00000000	    -11.14117694	     -0.84459552	     -0.24583663
      3.10500000	     -2.15273216	     -0.92817802	     -8.97191545	     -0.89778464	      0.90512748	      0.21133753	     -9.54808339	      5.60999857	      8.79817342	    -27.72947726	     23.44482711	     -1.12730502	      0.00000000	     31.90802028	     -1.68284557	     -6.07137768	    -17.40445797	      6.71457816	    -13.79511240	      0.00000000	    -10.92362828	     -1.35673913	     -0.48924602
      3.11000000	     -2.21626354	     -0.48681409	     -8.84679722	     -0.88993652	      0.90455406	      0.21081579	     -9.19618533	      5.00170741	      8.03534702	    -28.96883053	     22.85434642	     -0.31220244	      0.00000000	     32.20395438	     -1.07312914	     -5.68633109	    -18.47017305	      5.88858787	    -14.43994930	      0.00000000	    -10.71251785	     -1.88135327	     -0.71222430
      3.11500000	     -2.28492759	      0.00840887	     -8.71738405	     -0.88203177	      0.90405672	      0.21034932	     -8.78205670	      4.33700605	      7.27767806	    -30.28875095	     22.15023517	      0.45851010	      0.00000000	     32.51296700	     -0.42092704	     -5.36960741	    -19.56609892	      5.14961266	    -15.00667419	      0.00000000	    -10.47474109	     -2.48030050	     -0.97186926
      3.12000000	     -2.35013640	      0.52198934	     -8.59087417	     -0.87411376	      0.90363689	      0.20990453	     -8.31065073	      3.64402204	      6.52494014	    -31.69777786	     21.32607434	      1.20364671	      0.00000000	     32.81775104	      0.24408417	     -5.08891710	    -20.67675645	      4.49189093	    -15.54053331	      0.00000000	    -10.23594425	     -3.10500801	     -1.23998460
      3.12500000	     -2.39585319	      1.05070830	     -8.44593576	     -0.86610418	      0.90335530	      0.20952713	     -7.82258387	      2.93930770	      5.80615881	    -33.15778276	     20.30796032	      1.86049963	      0.00000000	     33.08014013	      0.91408405	     -4.92187268	    -21.76453633	      3.95783058	    -15.93233196	      0.00000000	    -10.00208030	     -3.76545153	     -1.51698331
      3.13000000	     -2.45391976	      1.53445981	     -8.34007970	     -0.85824288	      0.90306624	      0.20901589	     -7.22536628	      2.23514358	      5.05657487	    -34.75594395	     19.23553738	      2.61715203	      0.00000000	     33.34283658	      1.55776242	     -4.63099500	    -22.83625991	      3.40521848	    -16.54944430	      0.00000000	     -9.78742048	     -4.35011286	     -1.71051651
      3.13500000	     -2.47643925	      2.03418511	     -8.22761849	     -0.85028094	      0.90288742	      0.20860070	     -6.63100616	      1.51744473	      4.36237079	    -36.39578866	     17.98944621	      3.24514324	      0.00000000	     33.53076211	      2.19774260	     -4.48044830	    -23.85977125	      3.05441545	    -16.97030641	      0.00000000	     -9.59445141	     -4.97219340	     -1.92953873
      3.14000000	     -2.46074327	      2.53829117	     -8.11116841	     -0.84222575	      0.90282663	      0.20827592	     -6.04789792	      0.79929226	      3.72685751	    -38.06242768	     16.56636332	      3.72735268	      0.00000000	     33.62773990	      2.82704374	     -4.43096529	    -24.81265147	      2.90218675	    -17.22453058	      0.00000000	     -9.42688966	     -5.61851048	     -2.16900301
      3.14500000	     -2.47150961	      3.00177176	     -8.02940619	     -0.83434227	      0.90272020	      0.20776371	     -5.34205370	      0.08004356	      3.10252347	    -39.85045754	     15.10238125	      4.28787637	      0.00000000	     33.72235885	      3.43483998	     -4.31074258	    -25.70049422	      2.73976314	    -17.68182521	      0.00000000	     -9.26490006	     -6.17985642	     -2.31391689
      3.15000000	     -2.44459394	      3.46551716	     -7.94047341	     -0.82637568	      0.90273018	      0.20732663	     -4.65592207	     -0.63121920	      2.54293260	    -41.63706771	     13.47289546	      4.66083103	      0.00000000	     33.71805939	      4.03060216	     -4.28785361	    -26.50242710	      2.80225431	    -17.94865517	      0.00000000	     -9.12910210	     -6.75552010	     -2.48434709
      3.15500000	     -2.40301027	      3.91276739	     -7.85421025	     -0.81846181	      0.90278751	      0.20687427	     -3.94081935	     -1.32684380	      2.04073608	    -43.45396488	     11.75898952	      4.92060468	      0.00000000	     33.65393822	      4.60903054	     -4.30588470	    -27.22916097	      3.00888431	    -18.14969162	      0.00000000	     -9.02320236	     -7.30988927	     -2.64574864
      3.16000000	     -2.31574924	      4.32782717	     -7.76213946	     -0.81056827	      0.90297873	      0.20645630	     -3.25639877	     -1.97273729	      1.61484799	    -45.24826414	      9.92296156	      4.96362454	      0.00000000	     33.48385999	      5.16098492	     -4.34263394	    -27.87099215	      3.38325003	    -18.24468696	      0.00000000	     -8.98079740	     -7.83572687	     -2.80895233
      3.16500000	     -2.30030232	      4.76307880	     -7.67518304	     -0.80275160	      0.90309065	      0.20590483	     -2.43312475	     -2.65641754	      1.21938372	    -47.08879897	      8.12092556	      5.03768134	      0.00000000	     33.35962458	      5.72633922	     -4.42531809	    -28.44025164	      3.78182399	    -18.35268694	      0.00000000	     -8.85874400	     -8.34733209	     -2.95062107
      3.17000000	     -2.22027651	      5.14947018	     -7.57684273	     -0.79498899	      0.90334531	      0.20539501	     -1.66942649	     -3.26684972	      0.88125728	    -48.88322548	      6.26073262	      4.83860972	      0.00000000	     33.10935383	      6.26074010	     -4.48434088	    -28.92634633	      4.33689090	    -18.39543005	      0.00000000	     -8.83315890	     -8.81780307	     -3.10451183
      3.17500000	     -2.16074419	      5.53219387	     -7.47534048	     -0.78729493	      0.90362188	      0.20484485	     -0.85132536	     -3.86488659	      0.59144303	    -50.66454105	      4.44207893	      4.53198374	      0.00000000	     32.84500781	      6.78796892	     -4.57163820	    -29.34503595	      4.94206536	    -18.39069778	      0.00000000	     -8.79346719	     -9.26750895	     -3.26241523
      3.18000000	     -2.10263029	      5.90100237	     -7.36496150	     -0.77965702	      0.90395112	      0.20423516	     -0.01110204	     -4.43795615	      0.34372989	    -52.41106412	      2.68893680	      4.09001325	      0.00000000	     32.54718651	      7.30944875	     -4.65562185	    -29.70546843	      5.59094385	    -18.35233508	      0.00000000	     -8.76473616	     -9.68001491	     -3.41527773
      3.18500000	     -2.07171069	      6.24840674	     -7.25427354	     -0.77212998	      0.90430280	      0.20367609	      0.88447489	     -4.95850578	      0.15866116	    -54.12864298	      1.04778904	      3.51572702	      0.00000000	     32.24423647	      7.79613954	     -4.76146003	    -30.00315218	      6.27296839	    -18.26544478	      0.00000000	     -8.72232459	    -10.07441414	     -3.58076154
      3.19000000	     -2.11518051	      6.54579156	     -7.15355971	     -0.76476339	      0.90463309	      0.20316880	      1.89092756	     -5.37945482	      0.06889645	    -55.81377917	     -0.48256246	      2.82053847	      0.00000000	     32.01551266	      8.19674468	     -4.91985683	    -30.30046437	      6.98158611	    -18.06910114	      0.00000000	     -8.61603019	    -10.40111716	     -3.71340245
      3.19500000	     -2.13038667	      6.84241821	     -7.03498138	     -0.75735534	      0.90504601	      0.20259089	      2.86269478	     -5.79715001	     -0.01674998	    -57.43670382	     -1.77246285	      2.06148397	      0.00000000	     31.69685010	      8.63368392	     -4.97874180	    -30.50348400	      7.71850177	    -17.89520655	      0.00000000	     -8.53460497	    -10.71529589	     -3.84695646
      3.20000000	     -2.09413010	      7.14467720	     -6.89530158	     -0.75007077	      0.90557593	      0.20197369	      3.79511229	     -6.21499221	     -0.09889940	    -59.01685319	     -2.79714216	      1.24265648	      0.00000000	     31.31087821	      9.09445511	     -5.03951933	    -30.66441267	      8.37096151	    -17.76141239	      0.00000000	     -8.54758556	    -11.03369732	     -4.04521878
      3.20500000	     -2.07903631	      7.42064512	     -6.76089014	     -0.74281076	      0.90613986	      0.20140698	      4.75281863	     -6.57440008	     -0.12871111	    -60.53786086	     -3.55519280	      0.37331143	      0.00000000	     30.91421400	      9.52498524	     -5.06925338	    -30.78060683	      9.03246009	    -17.61045069	      0.00000000	     -8.53224235	    -11.32277349	     -4.22444242
